<?xml version="1.0" standalone="no"?>
<!DOCTYPE svg PUBLIC "-//W3C//DTD SVG 1.1//EN" "http://www.w3.org/Graphics/SVG/1.1/DTD/svg11.dtd">
<!--Generator: Xara Designer (www.xara.com), SVG filter version: 3.0.2.3-->
<svg stroke-width="0.501" stroke-linejoin="bevel" fill-rule="evenodd" xmlns:xlink="http://www.w3.org/1999/xlink" xmlns="http://www.w3.org/2000/svg" version="1.1" overflow="visible" width="469.905pt" height="170.196pt" viewBox="0 0 469.905 170.196">
 <defs>
  <marker id="DefaultArrow2" markerUnits="strokeWidth" viewBox="0 0 1 1" markerWidth="1" markerHeight="1" overflow="visible" orient="auto">
   <!-- REF_ARROW_STRAIGHT (-2) -->
   <g transform="scale(0.0092592592)">
    <!-- 1/108 -->
    <path d="M -9 54 L -9 -54 L 117 0 z"/>
   </g>
  </marker>
  <marker id="DefaultArrow3" markerUnits="strokeWidth" viewBox="0 0 1 1" markerWidth="1" markerHeight="1" overflow="visible" orient="auto">
   <!-- REF_ARROW_ANGLED -->
   <g transform="scale(0.0092592592)">
    <path d="M -27 54 L -9 0 L -27 -54 L 135 0 z"/>
   </g>
  </marker>
  <marker id="DefaultArrow4" markerUnits="strokeWidth" viewBox="0 0 1 1" markerWidth="1" markerHeight="1" overflow="visible" orient="auto">
   <!-- REF_ARROW_ROUNDED -->
   <g transform="scale(0.0092592592)">
    <path d="M -9,0 L -9,-45 C -9,-51.708 2.808,-56.580 9,-54 L 117,-9 C 120.916,-7.369 126.000,-4.242 126,0 C 126,4.242 120.916,7.369 117,9 L 9,54 C 2.808,56.580 -9,51.708 -9,45 z"/>
   </g>
  </marker>
  <marker id="DefaultArrow5" markerUnits="strokeWidth" viewBox="0 0 1 1" markerWidth="1" markerHeight="1" overflow="visible" orient="auto">
   <!-- REF_ARROW_SPOT -->
   <g transform="scale(0.0092592592)">
    <path d="M -54, 0 C -54,29.807 -29.807,54 0,54 C 29.807,54 54,29.807 54,0 C 54,-29.807 29.807,-54 0,-54 C -29.807,-54 -54,-29.807 -54,0 z"/>
   </g>
  </marker>
  <marker id="DefaultArrow6" markerUnits="strokeWidth" viewBox="0 0 1 1" markerWidth="1" markerHeight="1" overflow="visible" orient="auto">
   <!-- REF_ARROW_DIAMOND -->
   <g transform="scale(0.0092592592)">
    <path d="M -63,0 L 0,63 L 63,0 L 0,-63 z"/>
   </g>
  </marker>
  <marker id="DefaultArrow7" markerUnits="strokeWidth" viewBox="0 0 1 1" markerWidth="1" markerHeight="1" overflow="visible" orient="auto">
   <!-- REF_ARROW_FEATHER -->
   <g transform="scale(0.0092592592)">
    <path d="M 18,-54 L 108,-54 L 63,0 L 108,54 L 18, 54 L -36,0 z"/>
   </g>
  </marker>
  <marker id="DefaultArrow8" markerUnits="strokeWidth" viewBox="0 0 1 1" markerWidth="1" markerHeight="1" overflow="visible" orient="auto">
   <!-- REF_ARROW_FEATHER2 -->
   <g transform="scale(0.0092592592)">
    <path d="M -36,0 L 18,-54 L 54,-54 L 18,-18 L 27,-18 L 63,-54 L 99,-54 L 63,-18 L 72,-18 L 108,-54 L 144,-54 L 90,0 L 144,54 L 108,54 L 72,18 L 63,18 L 99,54 L 63,54 L 27,18 L 18,18 L 54,54 L 18,54 z"/>
   </g>
  </marker>
  <marker id="DefaultArrow9" markerUnits="strokeWidth" viewBox="0 0 1 1" markerWidth="1" markerHeight="1" overflow="visible" orient="auto">
   <!-- REF_ARROW_HOLLOWDIAMOND -->
   <g transform="scale(0.0092592592)">
    <path d="M 0,45 L -45,0 L 0, -45 L 45, 0 z M 0, 63 L-63, 0 L 0, -63 L 63, 0 z"/>
   </g>
  </marker>
  <filter id="StainedFilter">
   <feBlend mode="multiply" in2="BackgroundImage" in="SourceGraphic" result="blend"/>
   <feComposite in="blend" in2="SourceAlpha" operator="in" result="comp"/>
  </filter>
  <filter id="BleachFilter">
   <feBlend mode="screen" in2="BackgroundImage" in="SourceGraphic" result="blend"/>
   <feComposite in="blend" in2="SourceAlpha" operator="in" result="comp"/>
  </filter>
  <filter id="InvertTransparencyBitmapFilter">
   <feComponentTransfer>
    <feFuncR type="gamma" amplitude="1.055" exponent=".416666666" offset="-0.055"/>
    <feFuncG type="gamma" amplitude="1.055" exponent=".416666666" offset="-0.055"/>
    <feFuncB type="gamma" amplitude="1.055" exponent=".416666666" offset="-0.055"/>
   </feComponentTransfer>
   <feComponentTransfer>
    <feFuncR type="linear" slope="-1" intercept="1"/>
    <feFuncG type="linear" slope="-1" intercept="1"/>
    <feFuncB type="linear" slope="-1" intercept="1"/>
    <feFuncA type="linear" slope="1" intercept="0"/>
   </feComponentTransfer>
   <feComponentTransfer>
    <feFuncR type="gamma" amplitude="1" exponent="2.4" offset="0"/>
    <feFuncG type="gamma" amplitude="1" exponent="2.4" offset="0"/>
    <feFuncB type="gamma" amplitude="1" exponent="2.4" offset="0"/>
   </feComponentTransfer>
  </filter>
  <linearGradient id="LinearGradient" gradientUnits="userSpaceOnUse" x1="0" y1="0" x2="98.044" y2="104.561" gradientTransform="translate(24.492 42.239)">
   <stop offset="0" stop-color="#ffffff"/>
   <stop offset="1" stop-color="#000000"/>
  </linearGradient>
  <linearGradient id="LinearGradient_1" gradientUnits="userSpaceOnUse" x1="0" y1="0" x2="98.044" y2="104.561" gradientTransform="translate(9.364 86.715)">
   <stop offset="0" stop-color="#ffffff"/>
   <stop offset="1" stop-color="#000000"/>
  </linearGradient>
  <linearGradient id="LinearGradient_2" gradientUnits="userSpaceOnUse" x1="0" y1="0" x2="88.32" y2="80.732" gradientTransform="translate(422.214 15.588)">
   <stop offset="0" stop-color="#ffffff"/>
   <stop offset="1" stop-color="#000000"/>
  </linearGradient>
  <linearGradient id="LinearGradient_3" gradientUnits="userSpaceOnUse" x1="0" y1="0" x2="70.61" y2="0" gradientTransform="translate(400.823 158.529) rotate(180)">
   <stop offset="0" stop-color="#ffffff"/>
   <stop offset="1" stop-color="#000000"/>
  </linearGradient>
  <linearGradient id="LinearGradient_4" gradientUnits="userSpaceOnUse" x1="0" y1="0" x2="98.044" y2="104.561" gradientTransform="translate(102.793 42.239)">
   <stop offset="0" stop-color="#ffffff"/>
   <stop offset="1" stop-color="#000000"/>
  </linearGradient>
  <linearGradient id="LinearGradient_5" gradientUnits="userSpaceOnUse" x1="0" y1="0" x2="98.044" y2="104.561" gradientTransform="translate(87.665 86.715)">
   <stop offset="0" stop-color="#ffffff"/>
   <stop offset="1" stop-color="#000000"/>
  </linearGradient>
  <linearGradient id="LinearGradient_6" gradientUnits="userSpaceOnUse" x1="0" y1="0" x2="-104.56" y2="98.044" gradientTransform="translate(299.266 29.615)">
   <stop offset="0" stop-color="#ffffff"/>
   <stop offset="1" stop-color="#000000"/>
  </linearGradient>
  <linearGradient id="LinearGradient_7" gradientUnits="userSpaceOnUse" x1="0" y1="0" x2="-104.56" y2="98.044" gradientTransform="translate(225.147 29.615)">
   <stop offset="0" stop-color="#ffffff"/>
   <stop offset="1" stop-color="#000000"/>
  </linearGradient>
  <linearGradient id="LinearGradient_8" gradientUnits="userSpaceOnUse" x1="0" y1="0" x2="98.045" y2="104.561" gradientTransform="translate(331.92 42.239)">
   <stop offset="0" stop-color="#ffffff"/>
   <stop offset="1" stop-color="#000000"/>
  </linearGradient>
  <linearGradient id="LinearGradient_9" gradientUnits="userSpaceOnUse" x1="0" y1="0" x2="98.044" y2="104.561" gradientTransform="translate(316.793 86.715)">
   <stop offset="0" stop-color="#ffffff"/>
   <stop offset="1" stop-color="#000000"/>
  </linearGradient>
 </defs>
 <g id="Document" fill="none" stroke="black" font-family="Times New Roman" font-size="16" transform="scale(1 -1)">
  <g id="Spread" transform="translate(0 -170.196)">
   <g id="Layer 1">
    <mask id="TranspMask">
     <rect x="-10%" y="-10%" width="120%" height="120%" fill="url(#LinearGradient)" stroke="none"/>
    </mask>
    <path d="M 73.939,112.577 L 73.939,81.647 L 15.127,20.25 L 15.127,50.183 L 73.939,112.577 Z" fill="#6082bb" stroke-linejoin="round" stroke-linecap="round" stroke="none" stroke-width="0.749" marker-start="none" marker-end="none" stroke-miterlimit="79.8403193612775" mask="url(#TranspMask)"/>
    <mask id="TranspMask_1">
     <rect x="-10%" y="-10%" width="120%" height="120%" fill="url(#LinearGradient_1)" stroke="none"/>
    </mask>
    <path d="M 58.811,157.052 L 58.811,126.123 L 0,64.726 L 0,94.659 L 58.811,157.052 Z" fill="#6082bb" stroke-linejoin="round" stroke-linecap="round" stroke="none" stroke-width="0.749" marker-start="none" marker-end="none" stroke-miterlimit="79.8403193612775" mask="url(#TranspMask_1)"/>
    <path d="M 47.877,20.25 L 78.971,20.25 L 0,94.659 L 0,64.726 L 47.877,20.25 Z" fill="#9bb8e8" stroke-linejoin="round" stroke-linecap="round" stroke="none" stroke-width="0.749" marker-start="none" marker-end="none" stroke-miterlimit="79.8403193612775"/>
    <mask id="TranspMask_2">
     <rect x="-10%" y="-10%" width="120%" height="120%" fill="url(#LinearGradient_2)" stroke="none"/>
    </mask>
    <path d="M 422.214,0 L 422.214,29.609 L 469.905,74.409 L 469.905,44.476 L 422.214,0 Z" fill="#474849" stroke-linejoin="round" stroke-linecap="round" stroke="none" stroke-width="0.749" marker-start="none" marker-end="none" stroke-miterlimit="79.8403193612775" mask="url(#TranspMask_2)"/>
    <mask id="TranspMask_3">
     <rect x="-10%" y="-10%" width="120%" height="120%" fill="url(#LinearGradient_3)" stroke="none"/>
    </mask>
    <path d="M 358.505,170.088 L 379.669,148.926 L 422.214,148.926 L 401.05,170.088 L 358.505,170.088 Z" fill="#474849" stroke-linejoin="round" stroke-linecap="round" stroke="none" stroke-width="0.749" marker-start="none" marker-end="none" stroke-miterlimit="79.8403193612775" mask="url(#TranspMask_3)"/>
    <path d="M 401.047,21.169 L 422.214,0 L 422.214,149.034 L 401.047,170.196 L 401.047,21.169 Z" stroke-linejoin="round" stroke-linecap="round" stroke="none" stroke-width="0.749" fill="#f4645f" marker-start="none" marker-end="none" stroke-miterlimit="79.8403193612775"/>
    <mask id="TranspMask_4">
     <rect x="-10%" y="-10%" width="120%" height="120%" fill="url(#LinearGradient_4)" stroke="none"/>
    </mask>
    <path d="M 152.24,112.577 L 152.24,81.647 L 93.428,20.25 L 93.428,50.183 L 152.24,112.577 Z" fill="#6082bb" stroke-linejoin="round" stroke-linecap="round" stroke="none" stroke-width="0.749" marker-start="none" marker-end="none" stroke-miterlimit="79.8403193612775" mask="url(#TranspMask_4)"/>
    <mask id="TranspMask_5">
     <rect x="-10%" y="-10%" width="120%" height="120%" fill="url(#LinearGradient_5)" stroke="none"/>
    </mask>
    <path d="M 137.112,157.052 L 137.112,126.123 L 78.301,64.726 L 78.301,94.659 L 137.112,157.052 Z" fill="#6082bb" stroke-linejoin="round" stroke-linecap="round" stroke="none" stroke-width="0.749" marker-start="none" marker-end="none" stroke-miterlimit="79.8403193612775" mask="url(#TranspMask_5)"/>
    <path d="M 126.178,20.25 L 157.272,20.25 L 78.301,94.659 L 78.301,64.726 L 126.178,20.25 Z" fill="#9bb8e8" stroke-linejoin="round" stroke-linecap="round" stroke="none" stroke-width="0.749" marker-start="none" marker-end="none" stroke-miterlimit="79.8403193612775"/>
    <mask id="TranspMask_6">
     <rect x="-10%" y="-10%" width="120%" height="120%" fill="url(#LinearGradient_6)" stroke="none"/>
    </mask>
    <path d="M 228.929,79.062 L 259.858,79.062 L 321.255,20.25 L 291.322,20.25 L 228.929,79.062 Z" fill="#6082bb" stroke-linejoin="round" stroke-linecap="round" stroke="none" stroke-width="0.749" marker-start="none" marker-end="none" stroke-miterlimit="79.8403193612775" mask="url(#TranspMask_6)"/>
    <mask id="TranspMask_7">
     <rect x="-10%" y="-10%" width="120%" height="120%" fill="url(#LinearGradient_7)" stroke="none"/>
    </mask>
    <path d="M 154.81,79.062 L 185.739,79.062 L 247.136,20.25 L 217.203,20.25 L 154.81,79.062 Z" fill="#6082bb" stroke-linejoin="round" stroke-linecap="round" stroke="none" stroke-width="0.749" marker-start="none" marker-end="none" stroke-miterlimit="79.8403193612775" mask="url(#TranspMask_7)"/>
    <path d="M 291.612,68.128 L 291.612,99.221 L 217.203,20.25 L 247.136,20.25 L 291.612,68.128 Z" fill="#9bb8e8" stroke-linejoin="round" stroke-linecap="round" stroke="none" stroke-width="0.749" marker-start="none" marker-end="none" stroke-miterlimit="79.8403193612775"/>
    <mask id="TranspMask_8">
     <rect x="-10%" y="-10%" width="120%" height="120%" fill="url(#LinearGradient_8)" stroke="none"/>
    </mask>
    <path d="M 381.367,112.577 L 381.367,81.647 L 322.556,20.25 L 322.556,50.183 L 381.367,112.577 Z" fill="#474849" stroke-linejoin="round" stroke-linecap="round" stroke="none" stroke-width="0.749" marker-start="none" marker-end="none" stroke-miterlimit="79.8403193612775" mask="url(#TranspMask_8)"/>
    <mask id="TranspMask_9">
     <rect x="-10%" y="-10%" width="120%" height="120%" fill="url(#LinearGradient_9)" stroke="none"/>
    </mask>
    <path d="M 366.24,157.052 L 366.24,126.123 L 307.428,64.726 L 307.428,94.659 L 366.24,157.052 Z" fill="#4c4c4c" stroke-linejoin="round" stroke-linecap="round" stroke="none" stroke-width="0.749" marker-start="none" marker-end="none" stroke-miterlimit="79.8403193612775" mask="url(#TranspMask_9)"/>
    <path d="M 355.306,20.25 L 386.399,20.25 L 307.428,94.659 L 307.428,64.726 L 355.306,20.25 Z" stroke-linejoin="round" stroke-linecap="round" stroke="none" stroke-width="0.749" fill="#f4645f" marker-start="none" marker-end="none" stroke-miterlimit="79.8403193612775"/>
    <path d="M 431.68,115.056 L 431.68,84.365 L 469.905,44.476 L 469.905,74.409 L 431.68,115.056 Z" stroke-linejoin="round" stroke-linecap="round" stroke="none" stroke-width="0.749" fill="#f4645f" marker-start="none" marker-end="none" stroke-miterlimit="79.8403193612775"/>
   </g>
  </g>
 </g>
</svg>
